<svg viewBox="0 0 720 380" xmlns="http://www.w3.org/2000/svg" font-family="Verdana, sans-serif">
<rect width="720" height="380" fill="#ffffff"/>
<text x="360.0" y="24" font-size="14" font-weight="bold" text-anchor="middle" fill="#222222">ASR by source family (escalate budget, realistic reference)</text>

<line x1="60" y1="310.0" x2="700" y2="310.0" stroke="#D9D9D9" stroke-width="1"/>
<text x="52" y="314.0" font-size="10" text-anchor="end" fill="#222222">0</text>
<line x1="60" y1="258.0" x2="700" y2="258.0" stroke="#D9D9D9" stroke-width="1"/>
<text x="52" y="262.0" font-size="10" text-anchor="end" fill="#222222">20</text>
<line x1="60" y1="206.0" x2="700" y2="206.0" stroke="#D9D9D9" stroke-width="1"/>
<text x="52" y="210.0" font-size="10" text-anchor="end" fill="#222222">40</text>
<line x1="60" y1="154.0" x2="700" y2="154.0" stroke="#D9D9D9" stroke-width="1"/>
<text x="52" y="158.0" font-size="10" text-anchor="end" fill="#222222">60</text>
<line x1="60" y1="102.0" x2="700" y2="102.0" stroke="#D9D9D9" stroke-width="1"/>
<text x="52" y="106.0" font-size="10" text-anchor="end" fill="#222222">80</text>
<line x1="60" y1="50.0" x2="700" y2="50.0" stroke="#D9D9D9" stroke-width="1"/>
<text x="52" y="54.0" font-size="10" text-anchor="end" fill="#222222">100</text>
<text x="16" y="180.0" font-size="11" fill="#222222" transform="rotate(-90 16 180.0)" text-anchor="middle">ASR %</text>
<rect x="86.7" y="54.2" width="45.3" height="255.8" fill="#4C72B0"/>
<text x="109.3" y="50.2" font-size="9" text-anchor="middle" fill="#222222">98</text>
<line x1="109.3" y1="64.7" x2="109.3" y2="51.1" stroke="#222222" stroke-width="1.5"/>
<rect x="140.0" y="68.7" width="45.3" height="241.3" fill="#DD8452"/>
<text x="162.7" y="64.7" font-size="9" text-anchor="middle" fill="#222222">93</text>
<line x1="162.7" y1="84.1" x2="162.7" y2="60.0" stroke="#222222" stroke-width="1.5"/>
<rect x="193.3" y="56.2" width="45.3" height="253.8" fill="#4C72B0"/>
<text x="216.0" y="52.2" font-size="9" text-anchor="middle" fill="#222222">98</text>
<line x1="216.0" y1="67.7" x2="216.0" y2="52.1" stroke="#222222" stroke-width="1.5"/>
<text x="166.7" y="326.0" font-size="10" text-anchor="middle" fill="#222222">bipia</text>
<rect x="300.0" y="96.1" width="45.3" height="213.9" fill="#4C72B0"/>
<text x="322.7" y="92.1" font-size="9" text-anchor="middle" fill="#222222">82</text>
<line x1="322.7" y1="125.5" x2="322.7" y2="76.5" stroke="#222222" stroke-width="1.5"/>
<rect x="353.3" y="58.4" width="45.3" height="251.6" fill="#DD8452"/>
<text x="376.0" y="54.4" font-size="9" text-anchor="middle" fill="#222222">97</text>
<line x1="376.0" y1="78.7" x2="376.0" y2="52.3" stroke="#222222" stroke-width="1.5"/>
<rect x="406.7" y="54.2" width="45.3" height="255.8" fill="#4C72B0"/>
<text x="429.3" y="50.2" font-size="9" text-anchor="middle" fill="#222222">98</text>
<line x1="429.3" y1="72.3" x2="429.3" y2="50.7" stroke="#222222" stroke-width="1.5"/>
<text x="380.0" y="326.0" font-size="10" text-anchor="middle" fill="#222222">injecagent</text>
<rect x="513.3" y="199.1" width="45.3" height="110.9" fill="#4C72B0"/>
<text x="536.0" y="195.1" font-size="9" text-anchor="middle" fill="#222222">43</text>
<line x1="536.0" y1="218.9" x2="536.0" y2="178.3" stroke="#222222" stroke-width="1.5"/>
<rect x="566.7" y="62.1" width="45.3" height="247.9" fill="#DD8452"/>
<text x="589.3" y="58.1" font-size="9" text-anchor="middle" fill="#222222">95</text>
<line x1="589.3" y1="74.2" x2="589.3" y2="55.9" stroke="#222222" stroke-width="1.5"/>
<rect x="620.0" y="103.7" width="45.3" height="206.3" fill="#4C72B0"/>
<text x="642.7" y="99.7" font-size="9" text-anchor="middle" fill="#222222">79</text>
<line x1="642.7" y1="122.4" x2="642.7" y2="88.9" stroke="#222222" stroke-width="1.5"/>
<text x="593.3" y="326.0" font-size="10" text-anchor="middle" fill="#222222">llmail_inject</text>
<rect x="60" y="356" width="10" height="10" fill="#4C72B0"/>
<text x="74" y="365" font-size="10" fill="#222222">v0</text>
<rect x="180" y="356" width="10" height="10" fill="#DD8452"/>
<text x="194" y="365" font-size="10" fill="#222222">v3</text>
<rect x="300" y="356" width="10" height="10" fill="#4C72B0"/>
<text x="314" y="365" font-size="10" fill="#222222">guard</text>
</svg>
