<svg viewBox="0 0 720 380" xmlns="http://www.w3.org/2000/svg" font-family="Verdana, sans-serif">
<rect width="720" height="380" fill="#ffffff"/>
<text x="360.0" y="24" font-size="14" font-weight="bold" text-anchor="middle" fill="#222222">Per-call latency by component (mean, log scale)</text>

<line x1="60" y1="310.0" x2="700" y2="310.0" stroke="#D9D9D9" stroke-width="1"/>
<text x="52" y="314.0" font-size="10" text-anchor="end" fill="#222222">1.00</text>
<line x1="60" y1="258.0" x2="700" y2="258.0" stroke="#D9D9D9" stroke-width="1"/>
<text x="52" y="262.0" font-size="10" text-anchor="end" fill="#222222">3.98</text>
<line x1="60" y1="206.0" x2="700" y2="206.0" stroke="#D9D9D9" stroke-width="1"/>
<text x="52" y="210.0" font-size="10" text-anchor="end" fill="#222222">15.85</text>
<line x1="60" y1="154.0" x2="700" y2="154.0" stroke="#D9D9D9" stroke-width="1"/>
<text x="52" y="158.0" font-size="10" text-anchor="end" fill="#222222">63.10</text>
<line x1="60" y1="102.0" x2="700" y2="102.0" stroke="#D9D9D9" stroke-width="1"/>
<text x="52" y="106.0" font-size="10" text-anchor="end" fill="#222222">251.19</text>
<line x1="60" y1="50.0" x2="700" y2="50.0" stroke="#D9D9D9" stroke-width="1"/>
<text x="52" y="54.0" font-size="10" text-anchor="end" fill="#222222">1000.00</text>
<text x="16" y="180.0" font-size="11" fill="#222222" transform="rotate(-90 16 180.0)" text-anchor="middle">ms (log)</text>
<rect x="82.9" y="310.0" width="38.9" height="0.0" fill="#4C72B0"/>
<text x="102.3" y="306.0" font-size="9" text-anchor="middle" fill="#222222">0.02</text>
<text x="105.7" y="326.0" font-size="10" text-anchor="middle" fill="#222222">rules_mcp</text>
<rect x="174.3" y="310.0" width="38.9" height="0.0" fill="#4C72B0"/>
<text x="193.7" y="306.0" font-size="9" text-anchor="middle" fill="#222222">0.03</text>
<text x="197.1" y="326.0" font-size="10" text-anchor="middle" fill="#222222">rules_inj</text>
<rect x="265.7" y="310.0" width="38.9" height="0.0" fill="#4C72B0"/>
<text x="285.1" y="306.0" font-size="9" text-anchor="middle" fill="#222222">0.03</text>
<text x="288.6" y="326.0" font-size="10" text-anchor="middle" fill="#222222">pii</text>
<rect x="357.1" y="279.6" width="38.9" height="30.4" fill="#4C72B0"/>
<text x="376.6" y="275.6" font-size="9" text-anchor="middle" fill="#222222">2.24</text>
<text x="380.0" y="326.0" font-size="10" text-anchor="middle" fill="#222222">v0</text>
<rect x="448.6" y="116.1" width="38.9" height="193.9" fill="#4C72B0"/>
<text x="468.0" y="112.1" font-size="9" text-anchor="middle" fill="#222222">172.52</text>
<text x="471.4" y="326.0" font-size="10" text-anchor="middle" fill="#222222">v3</text>
<rect x="540.0" y="116.7" width="38.9" height="193.3" fill="#4C72B0"/>
<text x="559.4" y="112.7" font-size="9" text-anchor="middle" fill="#222222">169.92</text>
<text x="562.9" y="326.0" font-size="10" text-anchor="middle" fill="#222222">guard</text>
<rect x="631.4" y="93.6" width="38.9" height="216.4" fill="#4C72B0"/>
<text x="650.9" y="89.6" font-size="9" text-anchor="middle" fill="#222222">313.97</text>
<text x="654.3" y="326.0" font-size="10" text-anchor="middle" fill="#222222">fused</text>
<line x1="60" y1="136.7" x2="700" y2="136.7" stroke="#C44E52" stroke-width="1.5" stroke-dasharray="6,4"/>
<text x="700" y="132.7" font-size="10" text-anchor="end" fill="#C44E52">NFR-2 100ms</text>
<rect x="60" y="356" width="10" height="10" fill="#4C72B0"/>
<text x="74" y="365" font-size="10" fill="#222222">mean ms</text>
</svg>
